PathFileType	4	(X/Y/Z)	C:\Users\Basilio\Documents\Thesis Gigler\squatting_fais\c3dfiles\075\SLS_front_pre3\markers_experimental.trc
DataRate	CameraRate	NumFrames	NumMarkers	Units	OrigDataRate	OrigDataStartFrame	OrigNumFrames
200.000000	200.000000	4	61	mm	200.000000	665	1331
Frame#	Time	FHD			LBHD			C7			T10			CLAV			LSHO			LUUPA			LMUPA			LDUPA			LLEP			LMEP			LRAD			LUL			LRFIN			RSHO			RUPA1			RMUPA			RDUPA			RLEP			RMEP			RRAD			RUL			RUFIN			RASI			USACR			LSACR			RSACR			LTHI1			LTHI2			LTHI3			LTHI4			LLFC			LMFC			LTIB1			LTIB2			LTIB3			LTIB4			LLMAL			LMMAL			LHEE			LMT1			LMT2			LMT5			RTHI			RTHI2			RTHI3			RTHI4			RLFC			RMFC			RTIB1			RTIB2			RTIB3			RTIB4			RLMAL			RMMAL			RHEE			RMT1			RMT2			RMT5			LASI			RBHD			
		X1	Y1	Z1	X2	Y2	Z2	X3	Y3	Z3	X4	Y4	Z4	X5	Y5	Z5	X6	Y6	Z6	X7	Y7	Z7	X8	Y8	Z8	X9	Y9	Z9	X10	Y10	Z10	X11	Y11	Z11	X12	Y12	Z12	X13	Y13	Z13	X14	Y14	Z14	X15	Y15	Z15	X16	Y16	Z16	X17	Y17	Z17	X18	Y18	Z18	X19	Y19	Z19	X20	Y20	Z20	X21	Y21	Z21	X22	Y22	Z22	X23	Y23	Z23	X24	Y24	Z24	X25	Y25	Z25	X26	Y26	Z26	X27	Y27	Z27	X28	Y28	Z28	X29	Y29	Z29	X30	Y30	Z30	X31	Y31	Z31	X32	Y32	Z32	X33	Y33	Z33	X34	Y34	Z34	X35	Y35	Z35	X36	Y36	Z36	X37	Y37	Z37	X38	Y38	Z38	X39	Y39	Z39	X40	Y40	Z40	X41	Y41	Z41	X42	Y42	Z42	X43	Y43	Z43	X44	Y44	Z44	X45	Y45	Z45	X46	Y46	Z46	X47	Y47	Z47	X48	Y48	Z48	X49	Y49	Z49	X50	Y50	Z50	X51	Y51	Z51	X52	Y52	Z52	X53	Y53	Z53	X54	Y54	Z54	X55	Y55	Z55	X56	Y56	Z56	X57	Y57	Z57	X58	Y58	Z58	X59	Y59	Z59	X60	Y60	Z60	X61	Y61	Z61	

666	3.325	-207.5003662109376	1385.635009765625	-803.5695800781252	-365.2626953125001	1279.29443359375	-868.1153564453127	-407.7949218750001	1192.379028320313	-798.8634033203127	-562.8333740234376	912.031188964844	-782.4820556640627	-293.7374267578126	1091.929443359375	-789.455993652344	-301.0142822265626	1156.803833007813	-915.6937255859377	-150.8972930908203	1099.273803710938	-1008.486450195313	-126.1678695678711	1115.774536132813	-968.4688720703127	-82.14817810058595	1092.350952148438	-1002.756408691406	-0.9307876229286196	1083.109130859375	-988.345642089844	-18.1749382019043	1009.793762207031	-947.1608886718752	nan	nan	nan	239.4750213623047	1103.40283203125	-891.0584106445315	245.190902709961	1120.038208007813	-783.898864746094	-313.3649291992188	1154.06787109375	-662.0220336914064	-176.404769897461	1107.4130859375	-554.3309326171876	-145.0739440917969	1116.754760742188	-590.7587890625001	-106.5239944458008	1097.4814453125	-548.1139526367189	-36.38042831420899	1089.56201171875	-555.7614135742189	-30.85334777832032	1013.869445800781	-570.5666503906251	178.4132690429688	1103.09716796875	-734.7839355468751	197.9842834472657	1116.4873046875	-660.6905517578126	252.8023223876954	1142.228393554688	-758.9650878906251	-449.9167785644532	720.0861816406251	-673.7306518554689	-599.7908935546876	782.133483886719	-796.739685058594	-609.4049682617189	752.3023071289064	-824.9819946289065	-610.1342773437501	748.9709472656251	-770.3424072265627	-340.9479370117188	592.6210937500001	-1013.587585449219	-256.9547119140626	583.3695068359376	-1012.565063476563	-239.6758880615235	621.7896728515626	-985.9840087890627	-222.8660430908204	533.8363647460939	-1011.064025878906	-141.3199462890625	464.7663879394532	-1002.510375976563	-107.8881988525391	479.408416748047	-879.7077636718752	-17.95318031311036	411.7190856933595	-970.9595336914065	-37.94743347167969	345.1853332519532	-1021.252380371094	-2.937489986419678	364.0773925781251	-999.9981079101565	43.53003692626954	298.8077392578126	-969.952331542969	73.78023529052736	139.2190551757813	-991.0878906250002	85.01592254638673	169.9087677001953	-908.3320922851565	34.87925720214844	90.5045623779297	-948.6413574218752	227.9693756103516	159.7689514160157	-900.1334228515627	238.0294647216797	159.6069946289063	-948.9440917968752	217.5878448486329	118.0142440795899	-996.519958496094	-398.1756591796876	553.1598510742189	-619.0122680664064	-331.7185058593751	554.9294433593751	-619.2674560546876	-317.7702331542969	585.3207397460939	-628.3566284179689	-280.2159729003907	489.2314758300782	-626.1946411132814	-181.1410064697266	395.1065673828126	-664.2021484375001	-158.7959289550782	418.402557373047	-787.5425415039065	-180.4109802246094	275.6493835449219	-765.9852905273439	-260.6751403808594	220.0873413085938	-716.4470825195314	-234.4373016357422	207.7676544189454	-754.8688964843751	-269.6741638183594	185.4930419921875	-797.4366455078127	-388.4638977050782	106.6602859497071	-771.792419433594	-350.0008850097657	135.151107788086	-850.6759033203127	-445.4874267578126	93.55669403076173	-836.4639282226565	-241.9500579833985	55.37294387817384	-824.041442871094	-246.2541046142579	55.54810714721681	-781.5570068359377	-289.6286010742188	34.97311782836915	-734.3205566406251	-450.603729248047	737.3546142578126	-919.2785644531252	-323.9486083984376	1318.107543945313	-716.4050292968751	
667	3.33	-207.2108001708985	1384.590454101563	-803.2688598632815	-365.2434387207032	1278.336669921875	-867.8306274414065	-407.6852416992189	1191.436279296875	-798.5652465820315	-563.0747070312501	911.3687133789065	-782.4829101562502	-293.7544250488282	1091.078002929688	-789.5261840820315	-301.0509033203126	1155.970825195313	-915.6191406250002	-150.9355163574219	1098.693237304688	-1008.284790039063	-126.1550064086914	1115.090942382813	-968.3945312500002	-81.92303466796876	1091.784790039063	-1002.597412109375	-1.040533185005188	1082.625366210938	-988.308776855469	-18.08671951293946	1009.386474609375	-947.2684326171877	nan	nan	nan	239.5503082275391	1103.125	-891.450866699219	245.3904113769532	1119.790893554688	-784.1580810546877	-313.1144409179688	1152.8330078125	-661.8705444335939	-176.0011749267578	1106.40478515625	-554.2221679687501	-144.731918334961	1115.88525390625	-590.9351196289064	-106.1312637329102	1096.703369140625	-548.4061279296876	-36.03426742553712	1088.765014648438	-556.0341796875001	-30.40112113952637	1013.124572753906	-570.8688354492189	178.8361358642578	1102.864135742188	-735.0137329101564	198.3471221923829	1116.2744140625	-660.9912109375001	253.0389862060547	1142.002075195313	-759.3007812500001	-450.3774719238282	719.2684326171876	-673.7005615234376	-600.3127441406251	781.4442138671877	-796.8452758789065	-609.7595825195314	751.6798095703126	-825.0499267578127	-610.5317382812501	748.2876586914064	-770.4561157226565	-341.2382812500001	592.0802612304689	-1013.609985351563	-257.3903198242188	582.9406738281251	-1012.665710449219	-240.1826171875001	621.4008789062501	-986.2342529296877	-223.1562652587891	533.3683471679689	-1011.105590820313	-141.3358154296875	464.3635559082032	-1002.446899414063	-107.9878616333008	479.3908996582032	-879.7754516601565	-18.07860183715821	411.6450195312501	-971.010681152344	-38.06427001953126	345.0314636230469	-1021.244201660156	-3.014750242233277	364.0158996582032	-1000.132629394531	43.63090133666993	298.8393249511719	-970.014099121094	74.20516967773439	139.2493133544922	-990.9550781250002	85.29210662841798	170.073486328125	-908.2888183593752	35.71354293823243	90.29528045654298	-948.4134521484377	228.2070770263672	160.203353881836	-900.1058349609377	238.4001617431641	159.9679870605469	-948.7910766601565	218.0022430419922	118.2321701049805	-996.3670043945315	-398.5872802734376	552.6528320312501	-618.8356323242189	-332.0859985351563	554.5767211914064	-619.1386108398439	-318.4003295898438	584.8417358398439	-628.2297363281251	-280.5129699707032	488.9926147460939	-625.9688110351564	-181.3025512695313	395.0583496093751	-663.8576049804689	-159.1306457519532	418.2332763671876	-787.110046386719	-180.5996551513672	275.5753784179688	-765.5718994140626	-260.8177490234376	220.0263366699219	-716.1251831054689	-234.3367614746094	207.6120910644532	-754.3378906250001	-269.8750305175782	185.4016723632813	-797.020690917969	-388.5407104492189	106.5668258666992	-771.610778808594	-349.9544982910157	135.1539154052735	-850.4514770507815	-445.5801696777345	93.49854278564455	-836.299743652344	-241.9324645996094	55.58947753906251	-824.006042480469	-246.3296661376954	55.50479888916017	-781.5443115234377	-289.6195983886719	34.91538238525391	-734.2534790039064	-451.0243225097657	736.4160766601564	-919.369567871094	-321.9402465820313	1317.115966796875	-716.9094848632814	
668	3.335	-207.3312377929688	1383.643920898438	-803.2176513671877	-365.2848510742188	1277.229248046875	-867.5213623046877	-407.5887756347657	1190.307861328125	-798.308044433594	-563.3325195312501	910.647644042969	-782.4832153320315	-293.9349060058594	1089.864868164063	-789.5064086914065	-301.0373535156251	1155.110595703125	-915.4317016601565	-150.9383544921875	1098.118530273438	-1008.140686035156	-126.1543273925782	1114.518920898438	-968.3144531250002	-81.89376831054689	1091.212524414063	-1002.462341308594	-0.8650274872779848	1082.054443359375	-988.2725219726565	-18.20974349975586	1008.899230957031	-947.5698852539065	nan	nan	nan	239.6825714111329	1102.840454101563	-891.8447875976565	245.6495971679688	1119.588500976563	-784.5093383789065	-312.9064636230469	1151.527709960938	-661.7722167968751	-175.6095886230469	1105.508544921875	-554.2565307617189	-144.4200286865235	1114.97265625	-591.1821899414064	-105.618278503418	1095.816162109375	-548.6675415039064	-35.58655548095704	1088.099731445313	-556.2673950195314	-29.78425979614259	1012.466369628906	-571.0469360351564	179.3194580078125	1102.627807617188	-735.4011230468751	198.7038574218751	1116.08984375	-661.3357543945314	253.2931671142579	1141.725341796875	-759.7124633789064	-450.8316955566407	718.4451293945314	-673.5452880859376	-600.8483276367189	780.5166015625002	-796.9429321289065	-610.2444458007814	750.8278808593751	-825.1195068359377	-611.0902099609376	747.5921630859376	-770.5273437500002	-341.6882324218751	591.4933471679689	-1013.702819824219	-257.7446594238282	582.3529663085939	-1012.711547851563	-240.6402893066407	621.0702514648439	-986.4461669921877	-223.4086608886719	532.9052734375001	-1011.318237304688	-141.5175933837891	464.109100341797	-1002.530334472656	-108.1244430541992	479.3035583496095	-879.9063720703127	-18.16207885742188	411.5289611816407	-971.191345214844	-38.05142211914063	344.7680664062501	-1021.291076660156	-3.083154201507569	363.9123840332032	-1000.313537597656	43.66725540161134	298.8468933105469	-970.0567016601565	74.6143264770508	139.2208251953125	-990.8559570312502	85.59671783447267	170.2262725830078	-908.226501464844	36.24172592163087	90.33733367919923	-948.386901855469	228.4250640869141	160.5337829589844	-900.0617675781252	239.000473022461	160.0209045410157	-948.5105590820315	218.3620147705079	118.4197006225586	-996.1773071289065	-399.0678100585939	552.0714721679689	-618.8071289062501	-332.6035766601563	554.1461181640626	-618.9205322265626	-318.9406433105469	584.4597167968751	-628.1304321289064	-280.8962707519532	488.7368774414064	-625.6953125000001	-181.5054626464844	394.9547119140626	-663.4994506835939	-159.1436920166016	417.879364013672	-786.8240356445315	-180.72998046875	275.5292053222657	-765.2218017578126	-260.9633789062501	219.9862213134766	-715.7435302734376	-234.7470397949219	207.6855926513672	-754.1911621093751	-269.2953186035157	184.7275543212891	-796.9385375976565	-388.6607055664064	106.4903640747071	-771.3758544921877	-349.9140014648438	135.1216888427735	-850.1480102539065	-445.5858764648439	93.45483398437501	-836.216735839844	-241.9627075195313	55.71758270263673	-823.961120605469	-246.3223419189454	55.5096893310547	-781.4251098632815	-289.6625366210938	34.82600021362305	-734.2092285156251	-451.2700805664064	735.6910400390626	-919.463317871094	-323.6355895996094	1315.840209960938	-716.0310668945314	
669	3.34	-207.2371063232422	1382.52392578125	-802.9775390625002	-365.1813659667969	1276.392333984375	-867.4736938476565	-407.4605407714845	1189.359985351563	-798.1860961914065	-563.7027587890626	909.818542480469	-782.488220214844	-293.6835327148438	1088.764892578125	-789.324157714844	-300.9039001464844	1154.205078125	-915.1956787109377	-150.9237060546875	1097.622314453125	-1008.069885253906	-126.0359802246094	1113.856689453125	-968.1857910156252	-81.70334625244142	1090.6494140625	-1002.373046875	-1.022503852844239	1081.649780273438	-988.2788696289065	-18.16203689575196	1008.348815917969	-947.579284667969	nan	nan	nan	239.8507232666016	1102.515747070313	-892.1257934570315	245.8372650146485	1119.431274414063	-784.7383422851565	-312.5895690917969	1150.380615234375	-661.5859375000001	-175.3195343017578	1104.384521484375	-554.5914916992189	-144.1442565917969	1113.94970703125	-591.3948364257814	-105.2300338745117	1094.903564453125	-548.9337768554689	-35.0303077697754	1087.524658203125	-556.7935791015626	-29.2508888244629	1011.779296875	-571.1953735351564	179.7229766845703	1102.409912109375	-735.7837524414064	199.0742187500001	1115.943969726563	-661.6743774414064	253.6265258789063	1141.55224609375	-760.1168212890626	-451.2771301269532	717.7579956054689	-673.6817626953126	-601.2979125976564	779.8618164062502	-796.9796142578127	-610.6697998046876	750.0861816406251	-825.2911376953127	-611.6760253906251	746.7600097656251	-770.6413574218752	-341.8231201171876	590.9199829101564	-1013.738342285156	-257.9527587890626	581.7066650390626	-1012.747619628906	-241.2981109619141	620.6910400390626	-986.7402954101565	-223.7121582031251	532.4094848632814	-1011.350891113281	-141.861801147461	463.8330688476564	-1002.696350097656	-108.1527252197266	479.1927490234376	-879.968688964844	-18.27635574340821	411.4438476562501	-971.3864746093752	-38.14767837524415	344.5301208496094	-1021.263122558594	-3.190459966659547	363.7974853515626	-1000.418090820313	43.75189971923829	298.8847351074219	-970.1536254882815	74.72932434082033	139.2685089111328	-990.831237792969	85.85869598388673	170.3303985595703	-908.2465820312502	36.73065567016602	90.44005584716798	-948.3413696289065	228.7624053955079	160.8822479248047	-899.8894042968752	239.2067260742188	160.3076629638672	-948.4592285156252	218.7514038085938	118.6791458129883	-996.0447998046877	-399.5114135742189	551.5555419921876	-618.7135009765626	-333.0477294921876	553.7859497070314	-618.6841430664064	-319.5614318847657	583.9996337890626	-627.9931030273439	-281.2678833007813	488.4796752929689	-625.5249633789064	-181.6881256103516	394.8906250000001	-663.1307983398439	-159.4599914550782	417.7107543945314	-786.2885742187502	-180.9733123779297	275.4641418457032	-764.8395996093751	-261.0391845703126	219.9196166992188	-715.4525756835939	-235.1817016601563	207.9273529052735	-754.0395507812501	-269.3491821289063	184.6575927734375	-796.755554199219	-388.6979370117189	106.4253845214844	-771.2305297851565	-349.9353637695313	135.1528472900391	-850.0114746093752	-445.6822204589845	93.42984008789064	-836.1443481445315	-241.8185729980469	55.89319992065431	-823.7672119140627	-246.3814086914063	55.52703857421876	-781.404968261719	-289.6491394042969	34.78149032592774	-734.1309814453126	-451.640350341797	735.1495971679689	-919.3409423828127	-321.6435546875001	1314.850830078125	-716.6801757812501	
